# xmcd
#
# Track frame offsets:
#	150
#	12747
#	24182
#	37749
#	54981
#	67385
#	79747
#	90907
#	105084
#	118388
#
# Disc length: 1737 seconds
#
# Revision: 0
# Processed by: cddbd v1.4PL0 Copyright (c) Steve Scherf et al.
# Submitted via: EasyCDDAExtractor 4.5.0.2
#
DISCID=7206c70a
DTITLE=Joe Barnhill - s/t
DYEAR=1990
DGENRE=Country
TTITLE0=Your Old Flame Is Goin' Out Tonite
TTITLE1=Good As Gone
TTITLE2=Any Old Time
TTITLE3=The Chill Of An Early Fall
TTITLE4=Becky Morgan, Cotton Pickin' Time
TTITLE5=Lucky Me, Lucky You
TTITLE6=For Cryin' Out Loud
TTITLE7=It's All Coming Back To Me Now
TTITLE8=Special Occasions
TTITLE9=Tell Me Why I'm Still Crying Over You
EXTD=
EXTT0=
EXTT1=
EXTT2=
EXTT3=
EXTT4=
EXTT5=
EXTT6=
EXTT7=
EXTT8=
EXTT9=
PLAYORDER=
